<svg width="101" height="100" viewBox="0 0 101 100" fill="none" xmlns="http://www.w3.org/2000/svg">
<path d="M55.8505 81.992C55.9481 72.0145 53.4186 63.9008 50.2009 63.8692C46.9831 63.8379 44.2954 71.9008 44.198 81.8781C44.1004 91.8557 46.63 99.9696 49.8476 100.001C53.0655 100.032 55.7531 91.9696 55.8505 81.992Z" fill="black"/>
<path d="M37.1903 79.7203C42.6671 71.3796 44.9262 63.1863 42.2364 61.4201C39.5464 59.6539 32.9261 64.9834 27.4495 73.3241C21.9728 81.6648 19.7137 89.8579 22.4035 91.6243C25.0935 93.3905 31.7136 88.061 37.1903 79.7203Z" fill="black"/>
<path d="M22.689 67.7571C31.8059 63.7019 38.1362 58.031 36.8282 55.0908C35.5205 52.1506 27.0698 53.0546 17.953 57.1099C8.83624 61.165 2.50588 66.8359 3.8137 69.7761C5.1215 72.7164 13.5723 71.8124 22.689 67.7571Z" fill="black"/>
<path d="M35.7352 46.8458C36.2248 43.6653 28.627 39.8565 18.7653 38.3386C8.90333 36.8206 0.511905 38.1685 0.0223868 41.349C-0.467131 44.5295 7.13062 48.3381 16.9925 49.856C26.8542 51.374 35.2458 50.026 35.7352 46.8458Z" fill="black"/>
<path d="M39.2777 39.268C41.4087 36.8569 37.0753 29.5457 29.5989 22.9379C22.1224 16.3303 14.3339 12.9284 12.2029 15.3396C10.0719 17.7508 14.4053 25.062 21.8819 31.6697C29.3584 38.2775 37.1469 41.6793 39.2777 39.268Z" fill="black"/>
<path d="M46.331 34.8415C49.4273 33.9654 49.735 25.4719 47.0182 15.871C44.3015 6.27002 39.5889 -0.802814 36.4926 0.0733667C33.3963 0.949547 33.0886 9.44294 35.8054 19.0439C38.5221 28.6447 43.2347 35.7177 46.331 34.8415Z" fill="black"/>
<path d="M65.477 19.3401C68.3827 9.79462 68.2427 1.29679 65.1642 0.359735C62.0857 -0.577341 57.2346 6.40119 54.3289 15.9467C51.4235 25.4922 51.5635 33.99 54.642 34.9271C57.7205 35.8641 62.5716 28.8857 65.477 19.3401Z" fill="black"/>
<path d="M79.1595 32.2389C86.7638 25.7786 91.2394 18.5534 89.1557 16.101C87.0723 13.6486 79.2188 16.8979 71.6147 23.3579C64.0104 29.8183 59.535 37.0434 61.6185 39.4958C63.7019 41.9482 71.5554 38.6992 79.1595 32.2389Z" fill="black"/>
<path d="M83.6811 50.4919C93.5711 49.1688 101.242 45.5106 100.816 42.321C100.389 39.1316 92.0257 37.6187 82.1358 38.9416C72.2461 40.2648 64.5746 43.9229 65.0014 47.1125C65.4281 50.3019 73.7912 51.8151 83.6811 50.4919Z" fill="black"/>
<path d="M96.4398 70.6851C97.8054 67.7714 91.5881 61.9768 82.553 57.7425C73.5182 53.5083 65.0868 52.438 63.7213 55.3517C62.3557 58.2656 68.573 64.0602 77.6081 68.2945C86.6429 72.5285 95.0743 73.5991 96.4398 70.6851Z" fill="black"/>
<path d="M77.4326 92.1867C80.1568 90.474 78.0597 82.2377 72.7486 73.7907C67.4375 65.3437 60.9235 59.8848 58.1993 61.5975C55.4752 63.3103 57.5723 71.5466 62.8834 79.9936C68.1945 88.4406 74.7085 93.8997 77.4326 92.1867Z" fill="black"/>
</svg>
