<svg width="101" height="100" viewBox="0 0 101 100" fill="none" xmlns="http://www.w3.org/2000/svg">
<path fill-rule="evenodd" clip-rule="evenodd" d="M48.2027 0.0664062C21.8098 1.43852 0.832031 23.2692 0.832031 49.9984C0.832031 76.7277 21.8099 98.5584 48.2028 99.9304C41.1024 86.3477 36.8393 68.9561 36.8393 49.9983C36.8393 31.0406 41.1024 13.6491 48.2027 0.0664062Z" fill="#0C11E8"/>
<path fill-rule="evenodd" clip-rule="evenodd" d="M48.1934 0.0689114C49.0704 0.0231608 49.9534 0 50.8418 0C77.9925 0 100.09 21.6321 100.833 48.5982C99.9556 48.644 99.0725 48.6671 98.1841 48.6671C71.0334 48.6671 48.9361 27.035 48.1934 0.0689114Z" fill="#0C11E8"/>
<path fill-rule="evenodd" clip-rule="evenodd" d="M48.1934 99.9302C49.0704 99.9759 49.9534 99.9991 50.8417 99.9991C77.9925 99.9991 100.09 78.367 100.832 51.4009C99.9555 51.3551 99.0725 51.332 98.1841 51.332C71.0334 51.332 48.9361 72.9641 48.1934 99.9302Z" fill="#0C11E8"/>
</svg>
