<svg width="101" height="100" viewBox="0 0 101 100" fill="none" xmlns="http://www.w3.org/2000/svg">
<g clip-path="url(#clip0_105_203)">
<mask id="mask0_105_203" style="mask-type:luminance" maskUnits="userSpaceOnUse" x="0" y="1" width="99" height="98">
<path d="M98.4145 1.2207H0.853516V98.7817H98.4145V1.2207Z" fill="white"/>
</mask>
<g mask="url(#mask0_105_203)">
<path fill-rule="evenodd" clip-rule="evenodd" d="M63.1846 29.7214C59.1736 27.0414 54.458 25.6109 49.6341 25.6109V1.2207C59.2819 1.2207 68.7131 4.08163 76.7351 9.4417C84.757 14.8018 91.0092 22.4202 94.7014 31.3336C98.3934 40.247 99.3595 50.0553 97.4773 59.5178C95.5951 68.9802 90.9492 77.6722 84.127 84.4941C77.3051 91.3163 68.6131 95.9622 59.1507 97.8444C49.6882 99.7266 39.8799 98.7605 30.9665 95.0685C22.0531 91.3763 14.4346 85.1241 9.07452 77.1022C3.71445 69.0802 0.853516 59.649 0.853516 50.0012H25.2438C25.2438 54.8251 26.6743 59.5407 29.3543 63.5517C32.0343 67.5627 35.8436 70.6888 40.3004 72.5349C44.757 74.3809 49.6612 74.8639 54.3924 73.9227C59.1236 72.9817 63.4695 70.6588 66.8807 67.2478C70.2916 63.8366 72.6146 59.4907 73.5555 54.7595C74.4968 50.0283 74.0138 45.1241 72.1677 40.6675C70.3216 36.2107 67.1955 32.4014 63.1846 29.7214Z" fill="#007DFC"/>
<path fill-rule="evenodd" clip-rule="evenodd" d="M25.2438 1.22071C25.2438 4.42368 24.6129 7.59529 23.3872 10.5544C22.1614 13.5136 20.3649 16.2024 18.1 18.4672C15.8352 20.7321 13.1464 22.5286 10.1873 23.7544C7.22808 24.98 4.05647 25.6109 0.853518 25.6109L0.853516 50.0012C7.25945 50.0012 13.6027 48.7395 19.521 46.288C25.4394 43.8366 30.817 40.2434 35.3465 35.7136C39.8763 31.1841 43.4694 25.8066 45.9209 19.8882C48.3724 13.9699 49.6341 7.62663 49.6341 1.2207L25.2438 1.22071Z" fill="#007DFC"/>
</g>
</g>
<defs>
<clipPath id="clip0_105_203">
<rect width="100" height="100" fill="white" transform="translate(0.333984)"/>
</clipPath>
</defs>
</svg>
