<svg width="101" height="100" viewBox="0 0 101 100" fill="none" xmlns="http://www.w3.org/2000/svg">
<path fill-rule="evenodd" clip-rule="evenodd" d="M50.334 0C22.7198 0 0.333984 22.3858 0.333984 50C0.333984 77.6142 22.7198 100 50.334 100C50.5222 100 50.7102 99.999 50.898 99.9969C46.6956 99.9392 42.5203 99.0871 38.5985 97.4627C32.5076 94.9397 27.3017 90.6673 23.639 85.1857C19.9762 79.7041 18.0213 73.2593 18.0213 66.6667H51.3545C44.7617 66.6667 38.3171 64.7117 32.8354 61.049C27.3538 57.3862 23.0814 52.1803 20.5585 46.0894C18.0356 39.9986 17.3754 33.2963 18.6616 26.8303C19.9477 20.3643 23.1225 14.4248 27.7843 9.76312C32.446 5.10136 38.3854 1.92668 44.8515 0.640505C46.8528 0.24241 48.8768 0.0307736 50.8982 0.00311872C50.7105 0.00104139 50.5223 0 50.334 0ZM55.7035 0.28495C58.577 0.663082 61.4042 1.41633 64.1106 2.53736C70.2015 5.06029 75.4074 9.3327 79.0701 14.8143C82.7328 20.2959 84.6878 26.7407 84.6878 33.3333H51.3545C57.9472 33.3333 64.392 35.2883 69.8736 38.951C75.3552 42.6138 79.6277 47.8197 82.1506 53.9106C84.6735 60.0014 85.3337 66.7037 84.0474 73.1697C82.7612 79.6357 79.5865 85.5752 74.9248 90.2369C70.2631 94.8986 64.3236 98.0733 57.8576 99.3595C57.1428 99.5017 56.425 99.62 55.7055 99.7148C80.7938 97.0351 100.334 75.7995 100.334 50C100.334 24.1997 80.7928 2.9637 55.7035 0.28495Z" fill="white"/>
<path fill-rule="evenodd" clip-rule="evenodd" d="M50.334 0C22.7198 0 0.333984 22.3858 0.333984 50C0.333984 77.6142 22.7198 100 50.334 100C50.5222 100 50.7102 99.999 50.898 99.9969C46.6956 99.9392 42.5203 99.0871 38.5985 97.4627C32.5076 94.9397 27.3017 90.6673 23.639 85.1857C19.9762 79.7041 18.0213 73.2593 18.0213 66.6667H51.3545C44.7617 66.6667 38.3171 64.7117 32.8354 61.049C27.3538 57.3862 23.0814 52.1803 20.5585 46.0894C18.0356 39.9986 17.3754 33.2963 18.6616 26.8303C19.9477 20.3643 23.1225 14.4248 27.7843 9.76312C32.446 5.10136 38.3854 1.92668 44.8515 0.640505C46.8528 0.24241 48.8768 0.0307736 50.8982 0.00311872C50.7105 0.00104139 50.5223 0 50.334 0ZM55.7035 0.28495C58.577 0.663082 61.4042 1.41633 64.1106 2.53736C70.2015 5.06029 75.4074 9.3327 79.0701 14.8143C82.7328 20.2959 84.6878 26.7407 84.6878 33.3333H51.3545C57.9472 33.3333 64.392 35.2883 69.8736 38.951C75.3552 42.6138 79.6277 47.8197 82.1506 53.9106C84.6735 60.0014 85.3337 66.7037 84.0474 73.1697C82.7612 79.6357 79.5865 85.5752 74.9248 90.2369C70.2631 94.8986 64.3236 98.0733 57.8576 99.3595C57.1428 99.5017 56.425 99.62 55.7055 99.7148C80.7938 97.0351 100.334 75.7995 100.334 50C100.334 24.1997 80.7928 2.9637 55.7035 0.28495Z" fill="url(#paint0_radial_105_310)"/>
<path fill-rule="evenodd" clip-rule="evenodd" d="M50.334 0C22.7198 0 0.333984 22.3858 0.333984 50C0.333984 77.6142 22.7198 100 50.334 100C50.5222 100 50.7102 99.999 50.898 99.9969C46.6956 99.9392 42.5203 99.0871 38.5985 97.4627C32.5076 94.9397 27.3017 90.6673 23.639 85.1857C19.9762 79.7041 18.0213 73.2593 18.0213 66.6667H51.3545C44.7617 66.6667 38.3171 64.7117 32.8354 61.049C27.3538 57.3862 23.0814 52.1803 20.5585 46.0894C18.0356 39.9986 17.3754 33.2963 18.6616 26.8303C19.9477 20.3643 23.1225 14.4248 27.7843 9.76312C32.446 5.10136 38.3854 1.92668 44.8515 0.640505C46.8528 0.24241 48.8768 0.0307736 50.8982 0.00311872C50.7105 0.00104139 50.5223 0 50.334 0ZM55.7035 0.28495C58.577 0.663082 61.4042 1.41633 64.1106 2.53736C70.2015 5.06029 75.4074 9.3327 79.0701 14.8143C82.7328 20.2959 84.6878 26.7407 84.6878 33.3333H51.3545C57.9472 33.3333 64.392 35.2883 69.8736 38.951C75.3552 42.6138 79.6277 47.8197 82.1506 53.9106C84.6735 60.0014 85.3337 66.7037 84.0474 73.1697C82.7612 79.6357 79.5865 85.5752 74.9248 90.2369C70.2631 94.8986 64.3236 98.0733 57.8576 99.3595C57.1428 99.5017 56.425 99.62 55.7055 99.7148C80.7938 97.0351 100.334 75.7995 100.334 50C100.334 24.1997 80.7928 2.9637 55.7035 0.28495Z" fill="url(#paint1_radial_105_310)"/>
<path fill-rule="evenodd" clip-rule="evenodd" d="M50.334 0C22.7198 0 0.333984 22.3858 0.333984 50C0.333984 77.6142 22.7198 100 50.334 100C50.5222 100 50.7102 99.999 50.898 99.9969C46.6956 99.9392 42.5203 99.0871 38.5985 97.4627C32.5076 94.9397 27.3017 90.6673 23.639 85.1857C19.9762 79.7041 18.0213 73.2593 18.0213 66.6667H51.3545C44.7617 66.6667 38.3171 64.7117 32.8354 61.049C27.3538 57.3862 23.0814 52.1803 20.5585 46.0894C18.0356 39.9986 17.3754 33.2963 18.6616 26.8303C19.9477 20.3643 23.1225 14.4248 27.7843 9.76312C32.446 5.10136 38.3854 1.92668 44.8515 0.640505C46.8528 0.24241 48.8768 0.0307736 50.8982 0.00311872C50.7105 0.00104139 50.5223 0 50.334 0ZM55.7035 0.28495C58.577 0.663082 61.4042 1.41633 64.1106 2.53736C70.2015 5.06029 75.4074 9.3327 79.0701 14.8143C82.7328 20.2959 84.6878 26.7407 84.6878 33.3333H51.3545C57.9472 33.3333 64.392 35.2883 69.8736 38.951C75.3552 42.6138 79.6277 47.8197 82.1506 53.9106C84.6735 60.0014 85.3337 66.7037 84.0474 73.1697C82.7612 79.6357 79.5865 85.5752 74.9248 90.2369C70.2631 94.8986 64.3236 98.0733 57.8576 99.3595C57.1428 99.5017 56.425 99.62 55.7055 99.7148C80.7938 97.0351 100.334 75.7995 100.334 50C100.334 24.1997 80.7928 2.9637 55.7035 0.28495Z" fill="url(#paint2_radial_105_310)"/>
<path fill-rule="evenodd" clip-rule="evenodd" d="M50.334 0C22.7198 0 0.333984 22.3858 0.333984 50C0.333984 77.6142 22.7198 100 50.334 100C50.5222 100 50.7102 99.999 50.898 99.9969C46.6956 99.9392 42.5203 99.0871 38.5985 97.4627C32.5076 94.9397 27.3017 90.6673 23.639 85.1857C19.9762 79.7041 18.0213 73.2593 18.0213 66.6667H51.3545C44.7617 66.6667 38.3171 64.7117 32.8354 61.049C27.3538 57.3862 23.0814 52.1803 20.5585 46.0894C18.0356 39.9986 17.3754 33.2963 18.6616 26.8303C19.9477 20.3643 23.1225 14.4248 27.7843 9.76312C32.446 5.10136 38.3854 1.92668 44.8515 0.640505C46.8528 0.24241 48.8768 0.0307736 50.8982 0.00311872C50.7105 0.00104139 50.5223 0 50.334 0ZM55.7035 0.28495C58.577 0.663082 61.4042 1.41633 64.1106 2.53736C70.2015 5.06029 75.4074 9.3327 79.0701 14.8143C82.7328 20.2959 84.6878 26.7407 84.6878 33.3333H51.3545C57.9472 33.3333 64.392 35.2883 69.8736 38.951C75.3552 42.6138 79.6277 47.8197 82.1506 53.9106C84.6735 60.0014 85.3337 66.7037 84.0474 73.1697C82.7612 79.6357 79.5865 85.5752 74.9248 90.2369C70.2631 94.8986 64.3236 98.0733 57.8576 99.3595C57.1428 99.5017 56.425 99.62 55.7055 99.7148C80.7938 97.0351 100.334 75.7995 100.334 50C100.334 24.1997 80.7928 2.9637 55.7035 0.28495Z" fill="url(#paint3_radial_105_310)"/>
<defs>
<radialGradient id="paint0_radial_105_310" cx="0" cy="0" r="1" gradientUnits="userSpaceOnUse" gradientTransform="translate(3.16583 -4.24232) rotate(36.2934) scale(150.312 134.018)">
<stop stop-color="#FF7D1E"/>
<stop offset="0.75" stop-color="#FA5853" stop-opacity="0"/>
</radialGradient>
<radialGradient id="paint1_radial_105_310" cx="0" cy="0" r="1" gradientUnits="userSpaceOnUse" gradientTransform="translate(76.4402 82.6505) rotate(36.2934) scale(109.906 97.9927)">
<stop stop-color="#F46692"/>
<stop offset="0.75" stop-color="#F46692" stop-opacity="0"/>
</radialGradient>
<radialGradient id="paint2_radial_105_310" cx="0" cy="0" r="1" gradientUnits="userSpaceOnUse" gradientTransform="translate(100.334 -2.22761) rotate(90) scale(102.946 130.985)">
<stop stop-color="#FA5853"/>
<stop offset="0.75" stop-color="#FA5853" stop-opacity="0"/>
</radialGradient>
<radialGradient id="paint3_radial_105_310" cx="0" cy="0" r="1" gradientUnits="userSpaceOnUse" gradientTransform="translate(0.333984 100.718) scale(138.761 95.2233)">
<stop stop-color="#F3A562"/>
<stop offset="0.75" stop-color="#F3A562" stop-opacity="0"/>
</radialGradient>
</defs>
</svg>
