<svg width="101" height="100" viewBox="0 0 101 100" fill="none" xmlns="http://www.w3.org/2000/svg">
<g clip-path="url(#clip0_105_181)">
<mask id="mask0_105_181" style="mask-type:luminance" maskUnits="userSpaceOnUse" x="3" y="0" width="98" height="100">
<path d="M100.663 0H3.10156V100H100.663V0Z" fill="white"/>
</mask>
<g mask="url(#mask0_105_181)">
<path fill-rule="evenodd" clip-rule="evenodd" d="M36.5518 1.25781C31.0484 1.25781 25.7706 3.444 21.8791 7.33544L3.10156 26.1129V34.708C3.10156 40.7805 5.70995 46.2436 9.86744 50.0383C5.70995 53.8329 3.10156 59.2961 3.10156 65.3685V73.9636L21.8791 92.7412C25.7706 96.6327 31.0484 98.8188 36.5518 98.8188C42.6242 98.8188 48.0874 96.2105 51.882 92.0529C55.6767 96.2105 61.1398 98.8188 67.2123 98.8188C72.7157 98.8188 77.9935 96.6327 81.885 92.7412L100.663 73.9636V65.3685C100.663 59.2961 98.0542 53.8329 93.8967 50.0383C98.0542 46.2436 100.663 40.7805 100.663 34.708V26.1129L81.885 7.33544C77.9935 3.444 72.7157 1.25781 67.2123 1.25781C61.1398 1.25781 55.6767 3.86619 51.882 8.02368C48.0874 3.86619 42.6242 1.25781 36.5518 1.25781ZM65.9279 50.0383C65.694 49.8249 65.4645 49.6056 65.2396 49.3807L51.882 36.0231L38.5245 49.3807C38.2996 49.6056 38.0701 49.8249 37.8362 50.0383C38.0701 50.2517 38.2996 50.471 38.5245 50.6958L51.882 64.0534L65.2396 50.6958C65.4645 50.471 65.694 50.2517 65.9279 50.0383ZM57.302 73.9636V78.0685C57.302 83.5417 61.7391 87.9788 67.2123 87.9788C69.8406 87.9788 72.3613 86.9346 74.2198 85.0761L89.8225 69.4734V65.3685C89.8225 59.8953 85.3854 55.4583 79.9123 55.4583C77.284 55.4583 74.7632 56.5024 72.9047 58.361L57.302 73.9636ZM46.462 73.9636L30.8593 58.361C29.0008 56.5024 26.4803 55.4583 23.8519 55.4583C18.3786 55.4583 13.9417 59.8953 13.9417 65.3685V69.4734L29.5442 85.0761C31.4028 86.9346 33.9235 87.9788 36.5518 87.9788C42.025 87.9788 46.462 83.5417 46.462 78.0685V73.9636ZM46.462 22.0081V26.1129L30.8593 41.7156C29.0008 43.5741 26.4803 44.6183 23.8519 44.6183C18.3786 44.6183 13.9417 40.1812 13.9417 34.708V30.6031L29.5442 15.0005C31.4028 13.142 33.9235 12.0979 36.5518 12.0979C42.025 12.0979 46.462 16.5349 46.462 22.0081ZM72.9047 41.7156L57.302 26.1129V22.0081C57.302 16.5349 61.7391 12.0979 67.2123 12.0979C69.8406 12.0979 72.3613 13.142 74.2198 15.0005L89.8225 30.6031V34.708C89.8225 40.1812 85.3854 44.6183 79.9123 44.6183C77.284 44.6183 74.7632 43.5741 72.9047 41.7156Z" fill="#FF630B"/>
</g>
</g>
<defs>
<clipPath id="clip0_105_181">
<rect width="100" height="100" fill="white" transform="translate(0.833984)"/>
</clipPath>
</defs>
</svg>
