<svg width="101" height="100" viewBox="0 0 101 100" fill="none" xmlns="http://www.w3.org/2000/svg">
<path d="M0.833984 61.7569C0.833984 56.7346 1.82318 51.7611 3.74522 47.1213C5.66728 42.481 8.48435 38.2649 12.0358 34.7135C15.5872 31.1621 19.8033 28.3449 24.4433 26.4229C29.0836 24.5011 34.0569 23.5117 39.0794 23.5117V61.7569H0.833984Z" fill="#442781"/>
<path d="M0.833984 61.7539C0.833984 66.7764 1.82318 71.7496 3.74522 76.39C5.66728 81.03 8.48435 85.2461 12.0358 88.7975C15.5872 92.3489 19.8033 95.1661 24.4433 97.0881C29.0836 99.0102 34.0569 99.9993 39.0794 99.9993V61.7539H0.833984Z" fill="#61459C"/>
<path d="M77.3209 61.7539C77.3209 66.7764 76.3324 71.7496 74.4106 76.39C72.4886 81.03 69.6716 85.2461 66.1196 88.7975C62.5682 92.3489 58.3521 95.1661 53.7118 97.0881C49.0719 99.0102 44.0985 99.9993 39.0762 99.9993V61.7539H77.3209Z" fill="#A992DB"/>
<path d="M100.907 28.7161C100.907 44.5755 88.0497 57.4322 72.1905 57.4322H43.4746V28.7161C43.4746 12.8567 56.3313 0 72.1905 0C88.0497 0 100.907 12.8567 100.907 28.7161Z" fill="#FF7917"/>
</svg>
