<svg width="101" height="100" viewBox="0 0 101 100" fill="none" xmlns="http://www.w3.org/2000/svg">
<path d="M100.332 53.7617H82.4216C66.7764 53.7617 54.0938 66.4447 54.0938 82.0899V100.001C78.7864 98.1697 98.5013 78.4546 100.332 53.7617Z" fill="#775732"/>
<path d="M46.5728 100.001V82.0899C46.5728 66.4447 33.8899 53.7617 18.2446 53.7617H0.333984C2.16487 78.4546 21.8799 98.1697 46.5728 100.001Z" fill="#775732"/>
<path d="M100.332 46.2391C98.5013 21.5462 78.7864 1.83089 54.0938 0V17.9109C54.0938 33.5561 66.7764 46.2391 82.4216 46.2391H100.332Z" fill="#775732"/>
<path d="M46.5728 0C21.8799 1.83089 2.16487 21.5462 0.333984 46.2391H18.2446C33.8899 46.2391 46.5728 33.5561 46.5728 17.9109V0Z" fill="#775732"/>
<path d="M34.2461 49.9997C41.1965 46.5269 46.8608 40.8625 50.3333 33.9121C53.8061 40.8625 59.4702 46.5269 66.4208 49.9997C59.4702 53.4723 53.8061 59.1367 50.3333 66.0871C46.8608 59.1367 41.1965 53.4723 34.2461 49.9997Z" fill="#CA9352"/>
</svg>
