<svg width="101" height="100" viewBox="0 0 101 100" fill="none" xmlns="http://www.w3.org/2000/svg">
<path d="M50.3341 0C43.7681 0 37.2661 1.29342 31.1998 3.806C25.1333 6.31885 19.6217 10.0017 14.9786 14.6446C10.3357 19.2877 6.65284 24.7995 4.13999 30.8658C1.62742 36.932 0.333984 43.434 0.333984 50C0.333984 56.566 1.62742 63.068 4.13999 69.1342C6.65284 75.2005 10.3357 80.7123 14.9786 85.3555C19.6217 89.9983 25.1333 93.6813 31.1998 96.194C37.2661 98.7065 43.7681 100 50.3341 100V75C47.0508 75 43.8001 74.3535 40.7668 73.0968C37.7338 71.8405 34.9778 69.9993 32.6563 67.6778C30.3348 65.3563 28.4933 62.6003 27.2371 59.5673C25.9806 56.534 25.3341 53.2833 25.3341 50C25.3341 46.7167 25.9806 43.466 27.2371 40.4327C28.4933 37.3997 30.3348 34.6437 32.6563 32.3222C34.9778 30.0007 37.7338 28.1595 40.7668 26.9033C43.8001 25.6465 47.0508 25 50.3341 25V0Z" fill="#0F52FF"/>
<path d="M50.3403 66.6692C59.5451 66.6692 67.0068 59.2074 67.0068 50.0024C67.0068 40.7977 59.5451 33.3359 50.3403 33.3359C41.1353 33.3359 33.6738 40.7977 33.6738 50.0024C33.6738 59.2074 41.1353 66.6692 50.3403 66.6692Z" fill="#0F52FF"/>
<path d="M0.333984 50C0.333984 56.566 1.62742 63.068 4.13999 69.1342C6.65284 75.2005 10.3357 80.7123 14.9786 85.3555C19.6217 89.9983 25.1333 93.6813 31.1998 96.194C37.2661 98.7065 43.7681 100 50.3341 100C56.9001 100 63.4021 98.7065 69.4683 96.194C75.5346 93.6813 81.0463 89.9983 85.6893 85.3555C90.3323 80.7123 94.0151 75.2005 96.5281 69.1342C99.0406 63.068 100.334 56.566 100.334 50H75.3341C75.3341 53.2833 74.6873 56.534 73.4308 59.5673C72.1746 62.6003 70.3331 65.3563 68.0118 67.6778C65.6903 69.9993 62.9343 71.8405 59.9011 73.0968C56.8681 74.3535 53.6171 75 50.3341 75C47.0508 75 43.8001 74.3535 40.7668 73.0968C37.7338 71.8405 34.9778 69.9993 32.6563 67.6778C30.3348 65.3563 28.4933 62.6003 27.2371 59.5673C25.9806 56.534 25.3341 53.2833 25.3341 50H0.333984Z" fill="#5BD0F4"/>
<path d="M67.0071 50.0027C67.0071 45.5824 65.2511 41.3432 62.1258 38.2174C59.0001 35.0919 54.7608 33.3359 50.3406 33.3359C45.9203 33.3359 41.6811 35.0919 38.5553 38.2174C35.4298 41.3432 33.6738 45.5824 33.6738 50.0027H50.3406H67.0071Z" fill="#5BD0F4"/>
</svg>
