<svg width="172" height="38" viewBox="0 0 172 38" fill="none" xmlns="http://www.w3.org/2000/svg">
<path d="M40 11.2124L21.1765 18.2712V22.3843L40 15.3255V11.2124Z" fill="#1A1C28"/>
<path d="M18.8235 24.8973L0 17.8384V21.9383L18.8235 28.9971V24.8973Z" fill="url(#paint0_linear_23_360)"/>
<path d="M21.1765 28.9971L40 21.9383V17.8384L21.1765 24.8973V28.9971Z" fill="url(#paint1_linear_23_360)"/>
<path d="M18.8235 22.3843V18.2712L0 11.2124V15.3255L18.8235 22.3843Z" fill="#1A1C28"/>
<path d="M21.1765 31.51V35.9182L40 28.8594V24.4512L21.1765 31.51Z" fill="#1A1C28"/>
<path d="M18.8235 31.51L0 24.4512V28.8594L18.8235 35.9182V31.51Z" fill="#1A1C28"/>
<path d="M20 16.1995L38.8235 9.14063L20 2.08181L1.17647 9.14063L20 16.1995Z" fill="url(#paint2_linear_23_360)"/>
<path d="M50.396 28.994C49.4207 28.994 48.4643 28.8293 47.527 28.5C46.6023 28.1707 45.76 27.683 45 27.037L47.964 23.465C48.2427 23.693 48.5847 23.902 48.99 24.092C49.3953 24.2693 49.864 24.358 50.396 24.358C51.0927 24.358 51.726 24.1807 52.296 23.826C52.866 23.4587 53.322 22.9837 53.664 22.401C54.0187 21.8057 54.196 21.1597 54.196 20.463V1.9H58.832V20.463C58.832 22.021 58.452 23.446 57.692 24.738C56.932 26.0173 55.9123 27.0497 54.633 27.835C53.3537 28.6077 51.9413 28.994 50.396 28.994Z" fill="#1A1C28"/>
<path d="M71.7648 28.994C70.0168 28.994 68.4208 28.5443 66.9768 27.645C65.5454 26.7457 64.3991 25.5423 63.5378 24.035C62.6891 22.515 62.2648 20.8367 62.2648 19C62.2648 17.6067 62.5118 16.3083 63.0058 15.105C63.4998 13.889 64.1774 12.825 65.0388 11.913C65.9128 10.9883 66.9261 10.2663 68.0788 9.747C69.2314 9.22767 70.4601 8.968 71.7648 8.968C73.5128 8.968 75.1024 9.41767 76.5338 10.317C77.9778 11.2163 79.1241 12.426 79.9728 13.946C80.8341 15.466 81.2648 17.1507 81.2648 19C81.2648 20.3807 81.0178 21.6727 80.5238 22.876C80.0298 24.0793 79.3458 25.1433 78.4718 26.068C77.6104 26.98 76.6034 27.6957 75.4508 28.215C74.3108 28.7343 73.0821 28.994 71.7648 28.994ZM71.7648 24.358C72.6894 24.358 73.5191 24.111 74.2538 23.617C74.9884 23.123 75.5648 22.4707 75.9828 21.66C76.4134 20.8493 76.6288 19.9627 76.6288 19C76.6288 18.012 76.4071 17.1127 75.9638 16.302C75.5331 15.4787 74.9441 14.8263 74.1968 14.345C73.4621 13.851 72.6514 13.604 71.7648 13.604C70.8528 13.604 70.0294 13.851 69.2948 14.345C68.5601 14.839 67.9774 15.4977 67.5468 16.321C67.1161 17.1443 66.9008 18.0373 66.9008 19C66.9008 20.0007 67.1224 20.9063 67.5658 21.717C68.0091 22.5277 68.5981 23.1737 69.3328 23.655C70.0801 24.1237 70.8908 24.358 71.7648 24.358Z" fill="#1A1C28"/>
<path d="M94.0342 8.968C95.8836 8.968 97.5682 9.41767 99.0882 10.317C100.608 11.2163 101.818 12.426 102.717 13.946C103.617 15.4533 104.066 17.1253 104.066 18.962C104.066 20.3427 103.807 21.641 103.287 22.857C102.768 24.073 102.046 25.1433 101.121 26.068C100.209 26.98 99.1453 27.6957 97.9293 28.215C96.7259 28.7343 95.4276 28.994 94.0342 28.994C92.8436 28.994 91.7859 28.728 90.8613 28.196C89.9493 27.6513 89.1829 26.9483 88.5623 26.087V28.5H83.9263V0H88.5623V11.875C89.1829 11.0137 89.9493 10.317 90.8613 9.785C91.7859 9.24034 92.8436 8.968 94.0342 8.968ZM93.9772 24.51C94.9652 24.51 95.8583 24.263 96.6562 23.769C97.4669 23.2623 98.1129 22.591 98.5943 21.755C99.0756 20.919 99.3163 19.988 99.3163 18.962C99.3163 17.9487 99.0756 17.024 98.5943 16.188C98.1129 15.3393 97.4669 14.668 96.6562 14.174C95.8456 13.68 94.9526 13.433 93.9772 13.433C93.0146 13.433 92.1532 13.6863 91.3932 14.193C90.6332 14.687 90.0379 15.3583 89.6073 16.207C89.1766 17.043 88.9613 17.9613 88.9613 18.962C88.9613 19.988 89.1766 20.9253 89.6073 21.774C90.0379 22.61 90.6332 23.275 91.3932 23.769C92.1532 24.263 93.0146 24.51 93.9772 24.51Z" fill="#1A1C28"/>
<path d="M106.731 28.5V23.864L121.988 6.536H106.731V1.9H128.239V6.536L112.982 23.864H128.239V28.5H106.731Z" fill="#1A1C28"/>
<path d="M131.26 21.47V9.5H135.896V20.254C135.896 21.0013 136.08 21.6853 136.447 22.306C136.814 22.914 137.302 23.4017 137.91 23.769C138.531 24.1237 139.208 24.301 139.943 24.301C140.703 24.301 141.387 24.1237 141.995 23.769C142.603 23.4017 143.091 22.914 143.458 22.306C143.825 21.6853 144.009 21.0013 144.009 20.254V9.5H148.645L148.664 28.5H144.028L144.009 26.771C143.35 27.455 142.571 27.9997 141.672 28.405C140.773 28.7977 139.81 28.994 138.784 28.994C137.403 28.994 136.143 28.6583 135.003 27.987C133.863 27.303 132.951 26.3973 132.267 25.27C131.596 24.13 131.26 22.8633 131.26 21.47Z" fill="#1A1C28"/>
<path d="M156.25 38H151.614V9.5H156.25V11.913C156.87 11.0517 157.63 10.355 158.53 9.823C159.442 9.27834 160.506 9.006 161.722 9.006C163.115 9.006 164.413 9.26567 165.617 9.785C166.82 10.3043 167.878 11.0263 168.79 11.951C169.714 12.863 170.43 13.9207 170.937 15.124C171.456 16.3273 171.716 17.6193 171.716 19C171.716 20.3807 171.456 21.679 170.937 22.895C170.43 24.111 169.714 25.1813 168.79 26.106C167.878 27.018 166.82 27.7337 165.617 28.253C164.413 28.7723 163.115 29.032 161.722 29.032C160.506 29.032 159.442 28.766 158.53 28.234C157.63 27.6893 156.87 26.9863 156.25 26.125V38ZM161.665 13.471C160.702 13.471 159.841 13.7243 159.081 14.231C158.321 14.725 157.725 15.39 157.295 16.226C156.864 17.062 156.649 17.9867 156.649 19C156.649 20.0133 156.864 20.9443 157.295 21.793C157.725 22.629 158.321 23.3003 159.081 23.807C159.841 24.301 160.702 24.548 161.665 24.548C162.64 24.548 163.533 24.301 164.344 23.807C165.154 23.313 165.8 22.648 166.282 21.812C166.763 20.9633 167.004 20.026 167.004 19C167.004 17.9867 166.763 17.062 166.282 16.226C165.8 15.39 165.154 14.725 164.344 14.231C163.546 13.7243 162.653 13.471 161.665 13.471Z" fill="#1A1C28"/>
<defs>
<linearGradient id="paint0_linear_23_360" x1="85.8579" y1="0" x2="85.8579" y2="38" gradientUnits="userSpaceOnUse">
<stop stop-color="#4276FC"/>
<stop offset="0.0001" stop-color="#3D73FF"/>
<stop offset="1" stop-color="#1844B5"/>
</linearGradient>
<linearGradient id="paint1_linear_23_360" x1="85.8579" y1="0" x2="85.8579" y2="38" gradientUnits="userSpaceOnUse">
<stop stop-color="#4276FC"/>
<stop offset="0.0001" stop-color="#3D73FF"/>
<stop offset="1" stop-color="#1844B5"/>
</linearGradient>
<linearGradient id="paint2_linear_23_360" x1="85.8579" y1="0" x2="85.8579" y2="38" gradientUnits="userSpaceOnUse">
<stop stop-color="#4276FC"/>
<stop offset="0.0001" stop-color="#3D73FF"/>
<stop offset="1" stop-color="#1844B5"/>
</linearGradient>
</defs>
</svg>
